<svg width="29" height="24" viewBox="0 0 29 24" fill="none" xmlns="http://www.w3.org/2000/svg">
<path d="M9.08 24.448C12.2548 24.448 14.7944 23.1187 16.5103 20.813C18.201 18.5409 19.04 15.3964 19.04 11.8H17.04C17.04 15.1156 16.263 17.7951 14.9058 19.619C13.5736 21.4093 11.6332 22.448 9.08 22.448V24.448ZM19.04 11.8C19.04 8.20356 18.201 5.05912 16.5103 2.78701C14.7944 0.481254 12.2548 -0.848001 9.08 -0.848001V1.152C11.6332 1.152 13.5736 2.19074 14.9058 3.98099C16.263 5.80488 17.04 8.48444 17.04 11.8H19.04ZM9.08 -0.848001C5.91986 -0.848001 3.38133 0.482232 1.6625 2.786C-0.0320997 5.0573 -0.88 8.20151 -0.88 11.8H1.12C1.12 8.48649 1.9041 5.8067 3.2655 3.98199C4.60267 2.18976 6.54415 1.152 9.08 1.152V-0.848001ZM-0.88 11.8C-0.88 15.3985 -0.0320997 18.5427 1.6625 20.814C3.38133 23.1178 5.91986 24.448 9.08 24.448V22.448C6.54415 22.448 4.60267 21.4102 3.2655 19.618C1.9041 17.7933 1.12 15.1135 1.12 11.8H-0.88ZM9.08 18.128C7.92286 18.128 7.11026 17.6599 6.5326 16.7174C5.91215 15.7051 5.536 14.0887 5.536 11.8H3.536C3.536 14.2473 3.92786 16.2949 4.8274 17.7626C5.76974 19.3001 7.22914 20.128 9.08 20.128V18.128ZM5.536 11.8C5.536 9.5116 5.91201 7.88564 6.53409 6.86412C7.11413 5.91163 7.92784 5.44 9.08 5.44V3.44C7.22416 3.44 5.76587 4.28037 4.82591 5.82388C3.92799 7.29835 3.536 9.3524 3.536 11.8H5.536ZM9.08 5.44C10.2337 5.44 11.0567 5.91326 11.6443 6.8681C12.2729 7.88952 12.656 9.51461 12.656 11.8H14.656C14.656 9.34939 14.2551 7.29447 13.3477 5.8199C12.3993 4.27874 10.9343 3.44 9.08 3.44V5.44ZM12.656 11.8C12.656 14.0857 12.2728 15.7012 11.6459 16.7135C11.0606 17.6583 10.2387 18.128 9.08 18.128V20.128C10.9293 20.128 12.3954 19.3017 13.3461 17.7665C14.2552 16.2988 14.656 14.2503 14.656 11.8H12.656ZM24.7712 0.599998V-0.400002H24.5998L24.4382 -0.342897L24.7712 0.599998ZM18.8832 2.68L18.5502 1.7371L17.6614 2.05108L17.9223 2.95687L18.8832 2.68ZM19.9713 6.456L19.0103 6.73287L19.2852 7.68684L20.2411 7.41889L19.9713 6.456ZM24.1952 5.272H25.1952V3.95315L23.9254 4.30911L24.1952 5.272ZM24.1952 23H23.1952V24H24.1952V23ZM28.6113 23V24H29.6113V23H28.6113ZM28.6113 0.599998H29.6113V-0.400002H28.6113V0.599998ZM24.4382 -0.342897L18.5502 1.7371L19.2163 3.62289L25.1043 1.54289L24.4382 -0.342897ZM17.9223 2.95687L19.0103 6.73287L20.9322 6.17913L19.8442 2.40313L17.9223 2.95687ZM20.2411 7.41889L24.4652 6.23489L23.9254 4.30911L19.7013 5.49311L20.2411 7.41889ZM23.1952 5.272V23H25.1952V5.272H23.1952ZM24.1952 24H28.6113V22H24.1952V24ZM29.6113 23V0.599998H27.6113V23H29.6113ZM28.6113 -0.400002H24.7712V1.6H28.6113V-0.400002Z" fill="#1F4439"/>
</svg>
