<svg width="35" height="24" viewBox="0 0 35 24" fill="none" xmlns="http://www.w3.org/2000/svg">
<path d="M9.48625 24.448C12.6611 24.448 15.2007 23.1187 16.9165 20.813C18.6073 18.5409 19.4463 15.3964 19.4463 11.8H17.4463C17.4463 15.1156 16.6692 17.7951 15.312 19.619C13.9798 21.4093 12.0394 22.448 9.48625 22.448V24.448ZM19.4463 11.8C19.4463 8.20356 18.6073 5.05912 16.9165 2.78701C15.2007 0.481254 12.6611 -0.848001 9.48625 -0.848001V1.152C12.0394 1.152 13.9798 2.19074 15.312 3.98099C16.6692 5.80488 17.4463 8.48444 17.4463 11.8H19.4463ZM9.48625 -0.848001C6.32611 -0.848001 3.78758 0.482232 2.06875 2.786C0.37415 5.0573 -0.47375 8.20151 -0.47375 11.8H1.52625C1.52625 8.48649 2.31035 5.8067 3.67175 3.98199C5.00892 2.18976 6.9504 1.152 9.48625 1.152V-0.848001ZM-0.47375 11.8C-0.47375 15.3985 0.37415 18.5427 2.06875 20.814C3.78758 23.1178 6.32611 24.448 9.48625 24.448V22.448C6.9504 22.448 5.00892 21.4102 3.67175 19.618C2.31035 17.7933 1.52625 15.1135 1.52625 11.8H-0.47375ZM9.48625 18.128C8.32911 18.128 7.51651 17.6599 6.93885 16.7174C6.3184 15.7051 5.94225 14.0887 5.94225 11.8H3.94225C3.94225 14.2473 4.33411 16.2949 5.23365 17.7626C6.17599 19.3001 7.63539 20.128 9.48625 20.128V18.128ZM5.94225 11.8C5.94225 9.5116 6.31826 7.88564 6.94034 6.86412C7.52038 5.91163 8.33409 5.44 9.48625 5.44V3.44C7.63041 3.44 6.17212 4.28037 5.23216 5.82388C4.33424 7.29835 3.94225 9.3524 3.94225 11.8H5.94225ZM9.48625 5.44C10.64 5.44 11.463 5.91326 12.0506 6.8681C12.6792 7.88952 13.0623 9.51461 13.0623 11.8H15.0623C15.0623 9.34939 14.6613 7.29447 13.7539 5.8199C12.8055 4.27874 11.3405 3.44 9.48625 3.44V5.44ZM13.0623 11.8C13.0623 14.0857 12.679 15.7012 12.0521 16.7135C11.4669 17.6583 10.6449 18.128 9.48625 18.128V20.128C11.3356 20.128 12.8016 19.3017 13.7524 17.7665C14.6615 16.2988 15.0623 14.2503 15.0623 11.8H13.0623ZM19.864 23H18.864V24H19.864V23ZM34.84 23V24H35.84V23H34.84ZM34.84 18.744H35.84V17.744H34.84V18.744ZM26.424 18.744L25.7169 18.0369L24.0098 19.744H26.424V18.744ZM19.704 4.888L18.7921 4.47763L18.4236 5.29655L19.1983 5.7507L19.704 4.888ZM23.416 7.064L22.9103 7.9267L23.863 8.48518L24.3245 7.4819L23.416 7.064ZM27.512 11.832L28.2293 12.5288L28.2343 12.5236L27.512 11.832ZM19.864 19.704L19.1468 19.0072L18.864 19.2982V19.704H19.864ZM19.864 24H34.84V22H19.864V24ZM35.84 23V18.744H33.84V23H35.84ZM34.84 17.744H26.424V19.744H34.84V17.744ZM27.1311 19.4511L31.5151 15.0671L30.1009 13.6529L25.7169 18.0369L27.1311 19.4511ZM31.5151 15.0671C33.6854 12.8968 35.488 10.3165 35.488 7.192H33.488C33.488 9.5075 32.1546 11.5992 30.1009 13.6529L31.5151 15.0671ZM35.488 7.192C35.488 2.04064 31.3612 -0.848001 27.096 -0.848001V1.152C30.5108 1.152 33.488 3.38336 33.488 7.192H35.488ZM27.096 -0.848001C23.7066 -0.848001 20.4109 0.880259 18.7921 4.47763L20.6159 5.29836C21.8771 2.49574 24.4054 1.152 27.096 1.152V-0.848001ZM19.1983 5.7507L22.9103 7.9267L23.9217 6.2013L20.2097 4.0253L19.1983 5.7507ZM24.3245 7.4819C24.9375 6.14918 25.9104 5.44 27.16 5.44V3.44C24.9536 3.44 23.3665 4.77882 22.5075 6.64609L24.3245 7.4819ZM27.16 5.44C27.7855 5.44 28.25 5.64319 28.5533 5.93937C28.8528 6.23198 29.072 6.69014 29.072 7.352H31.072C31.072 6.22186 30.6832 5.22402 29.9507 4.50862C29.222 3.79681 28.2305 3.44 27.16 3.44V5.44ZM29.072 7.352C29.072 7.85221 28.8855 8.41255 28.4814 9.06612C28.0768 9.72062 27.4939 10.4049 26.7897 11.1404L28.2343 12.5236C28.9701 11.7551 29.6672 10.9514 30.1826 10.1179C30.6985 9.28345 31.072 8.35578 31.072 7.352H29.072ZM26.7948 11.1352L19.1468 19.0072L20.5812 20.4008L28.2292 12.5288L26.7948 11.1352ZM18.864 19.704V23H20.864V19.704H18.864Z" fill="#1F4439"/>
</svg>
