<svg width="35" height="24" viewBox="0 0 35 24" fill="none" xmlns="http://www.w3.org/2000/svg">
<path d="M9.08 24.448C12.2548 24.448 14.7944 23.1187 16.5103 20.813C18.201 18.5409 19.04 15.3964 19.04 11.8H17.04C17.04 15.1156 16.263 17.7951 14.9058 19.619C13.5736 21.4093 11.6332 22.448 9.08 22.448V24.448ZM19.04 11.8C19.04 8.20356 18.201 5.05912 16.5103 2.78701C14.7944 0.481254 12.2548 -0.848001 9.08 -0.848001V1.152C11.6332 1.152 13.5736 2.19074 14.9058 3.98099C16.263 5.80488 17.04 8.48444 17.04 11.8H19.04ZM9.08 -0.848001C5.91986 -0.848001 3.38133 0.482232 1.6625 2.786C-0.0320997 5.0573 -0.88 8.20151 -0.88 11.8H1.12C1.12 8.48649 1.9041 5.8067 3.2655 3.98199C4.60267 2.18976 6.54415 1.152 9.08 1.152V-0.848001ZM-0.88 11.8C-0.88 15.3985 -0.0320997 18.5427 1.6625 20.814C3.38133 23.1178 5.91986 24.448 9.08 24.448V22.448C6.54415 22.448 4.60267 21.4102 3.2655 19.618C1.9041 17.7933 1.12 15.1135 1.12 11.8H-0.88ZM9.08 18.128C7.92286 18.128 7.11026 17.6599 6.5326 16.7174C5.91215 15.7051 5.536 14.0887 5.536 11.8H3.536C3.536 14.2473 3.92786 16.2949 4.8274 17.7626C5.76974 19.3001 7.22914 20.128 9.08 20.128V18.128ZM5.536 11.8C5.536 9.5116 5.91201 7.88564 6.53409 6.86412C7.11413 5.91163 7.92784 5.44 9.08 5.44V3.44C7.22416 3.44 5.76587 4.28037 4.82591 5.82388C3.92799 7.29835 3.536 9.3524 3.536 11.8H5.536ZM9.08 5.44C10.2337 5.44 11.0567 5.91326 11.6443 6.8681C12.2729 7.88952 12.656 9.51461 12.656 11.8H14.656C14.656 9.34939 14.2551 7.29447 13.3477 5.8199C12.3993 4.27874 10.9343 3.44 9.08 3.44V5.44ZM12.656 11.8C12.656 14.0857 12.2728 15.7012 11.6459 16.7135C11.0606 17.6583 10.2387 18.128 9.08 18.128V20.128C10.9293 20.128 12.3954 19.3017 13.3461 17.7665C14.2552 16.2988 14.656 14.2503 14.656 11.8H12.656ZM29.546 9.688L28.7539 9.07761L27.8643 10.2321L29.2616 10.6467L29.546 9.688ZM33.738 4.248L34.5301 4.85839L34.738 4.5886V4.248H33.738ZM33.738 0.599998H34.738V-0.400002H33.738V0.599998ZM19.658 0.599998V-0.400002H18.658V0.599998H19.658ZM19.658 4.728H18.658V5.728H19.658V4.728ZM28.426 4.728L29.2196 5.33643L30.4527 3.728H28.426V4.728ZM24.01 10.488L23.2164 9.87957L22.7824 10.4456L23.1763 11.0403L24.01 10.488ZM25.706 13.048L24.8724 13.6003L25.169 14.048H25.706V13.048ZM22.762 16.536L23.7125 16.2253L23.3298 15.0546L22.2627 15.6696L22.762 16.536ZM18.986 18.712L18.4867 17.8456L17.7355 18.2784L18.0575 19.0834L18.986 18.712ZM30.3381 10.2984L34.5301 4.85839L32.9459 3.63761L28.7539 9.07761L30.3381 10.2984ZM34.738 4.248V0.599998H32.738V4.248H34.738ZM33.738 -0.400002H19.658V1.6H33.738V-0.400002ZM18.658 0.599998V4.728H20.658V0.599998H18.658ZM19.658 5.728H28.426V3.728H19.658V5.728ZM27.6324 4.11957L23.2164 9.87957L24.8036 11.0964L29.2196 5.33643L27.6324 4.11957ZM23.1763 11.0403L24.8724 13.6003L26.5396 12.4957L24.8437 9.93571L23.1763 11.0403ZM25.706 14.048H26.666V12.048H25.706V14.048ZM26.666 14.048C27.6434 14.048 28.2812 14.3115 28.6607 14.6461C29.0276 14.9696 29.25 15.4428 29.25 16.088H31.25C31.25 14.9412 30.8324 13.8944 29.9833 13.1459C29.1468 12.4085 27.9926 12.048 26.666 12.048V14.048ZM29.25 16.088C29.25 16.7531 29.0251 17.223 28.6635 17.5394C28.2867 17.8691 27.6499 18.128 26.666 18.128V20.128C27.9861 20.128 29.1413 19.7789 29.9805 19.0446C30.8349 18.297 31.25 17.2469 31.25 16.088H29.25ZM26.666 18.128C25.7545 18.128 25.1265 17.9284 24.6901 17.6303C24.2607 17.3369 23.9293 16.8885 23.7125 16.2253L21.8115 16.8467C22.1387 17.8475 22.7033 18.6951 23.5619 19.2817C24.4135 19.8636 25.4655 20.128 26.666 20.128V18.128ZM22.2627 15.6696L18.4867 17.8456L19.4853 19.5784L23.2613 17.4024L22.2627 15.6696ZM18.0575 19.0834C19.5268 22.7565 23.0081 24.448 26.666 24.448V22.448C23.6039 22.448 21.0052 21.0675 19.9145 18.3406L18.0575 19.0834ZM26.666 24.448C28.9706 24.448 31.2115 23.7504 32.8943 22.3328C34.5975 20.898 35.666 18.7755 35.666 16.088H33.666C33.666 18.2005 32.8465 19.758 31.6057 20.8032C30.3445 21.8656 28.5854 22.448 26.666 22.448V24.448ZM35.666 16.088C35.666 12.2501 33.0635 9.68858 29.8304 8.72931L29.2616 10.6467C31.8525 11.4154 33.666 13.3339 33.666 16.088H35.666Z" fill="#1F4439"/>
</svg>
