<svg width="48" height="48" viewBox="0 0 48 48" fill="none" xmlns="http://www.w3.org/2000/svg">
<path fill-rule="evenodd" clip-rule="evenodd" d="M40.9421 36.8273C40.2136 36.8273 39.536 37.0221 38.9374 37.3412L29.7355 28.1054C30.32 27.2866 30.735 26.3463 30.927 25.3214H34.1261C34.4182 26.1451 34.9596 26.8575 35.6751 27.3594C36.3905 27.8614 37.2446 28.128 38.1186 28.1223C40.4593 28.1223 42.3539 26.2814 42.3539 24.0056C42.3539 21.7299 40.4593 19.8889 38.1186 19.8889C37.226 19.8835 36.3549 20.162 35.6311 20.6843C34.9073 21.2066 34.3684 21.9456 34.0922 22.7943H30.9327C30.7663 21.8307 30.3988 20.9129 29.8541 20.1007L39.1435 10.7774C39.6913 11.0287 40.2955 11.1812 40.9421 11.1812C43.2828 11.1812 45.1774 9.34022 45.1774 7.06446C45.1774 4.7887 43.2828 2.94775 40.9421 2.94775C38.6042 2.94775 36.7125 4.7887 36.7125 7.06446C36.7125 7.8014 36.9242 8.48469 37.2743 9.08328L28.0809 18.3134C27.2418 17.7173 26.2816 17.3134 25.2687 17.1303V13.7958C26.9826 13.2706 28.2362 11.7318 28.2362 9.88799C28.2362 7.61222 26.3416 5.77128 24.0009 5.77128C21.663 5.77128 19.7713 7.61222 19.7713 9.88799C19.7713 11.7374 21.0277 13.2847 22.7586 13.8042V17.1275C21.7308 17.3082 20.7821 17.7063 19.9604 18.2795L10.7557 9.04375C11.0889 8.45364 11.295 7.78728 11.295 7.06728C11.295 4.79152 9.40045 2.95058 7.05974 2.95058C4.72186 2.95058 2.83009 4.79152 2.83009 7.06728C2.83009 9.34305 4.72186 11.184 7.05974 11.184C7.72045 11.184 8.34445 11.023 8.90068 10.7605L18.176 20.0696C17.6226 20.8743 17.2442 21.8005 17.0663 22.8H13.9096C13.6333 21.9508 13.094 21.2115 12.3696 20.6891C11.6453 20.1668 10.7735 19.8885 9.88045 19.8946C7.54257 19.8946 5.6508 21.7355 5.6508 24.0113C5.6508 26.287 7.54257 28.128 9.88045 28.128C11.744 28.128 13.311 26.9534 13.8729 25.327H17.072C17.264 26.3689 17.696 27.3233 18.2974 28.1506L9.10962 37.3722C8.4809 37.0252 7.77506 36.8417 7.05692 36.8386C4.71904 36.8386 2.82727 38.6795 2.82727 40.9553C2.82727 43.231 4.71904 45.072 7.05692 45.072C9.39762 45.072 11.2922 43.231 11.2922 40.9553C11.2922 40.3172 11.1313 39.7214 10.8687 39.1878L20.1157 29.9012C20.8979 30.4207 21.7929 30.7736 22.7557 30.943V34.2155C21.0277 34.735 19.7684 36.2795 19.7684 38.1318C19.7684 40.4075 21.6602 42.2485 23.9981 42.2485C26.3388 42.2485 28.2334 40.4075 28.2334 38.1318C28.2334 36.2908 26.9826 34.7492 25.2659 34.224V30.9402C26.2372 30.7652 27.1379 30.4038 27.9256 29.8758L37.1557 39.1398C36.8648 39.7009 36.7119 40.3232 36.7096 40.9553C36.7096 43.231 38.6014 45.072 40.9393 45.072C43.28 45.072 45.1746 43.231 45.1746 40.9553C45.1746 38.6795 43.2828 36.8273 40.9421 36.8273Z" fill="#00E3A5"/>
</svg>
