<svg width="375" height="337" viewBox="0 0 375 337" fill="none" xmlns="http://www.w3.org/2000/svg">
<g clip-path="url(#clip0_1_162)" filter="url(#filter0_f_1_162)">
<path d="M72.5502 60V112.017L88.4679 101.427V67.226L72.5502 60ZM65.1467 100.655L52.3299 105.331V64.5211L65.1467 67.6898V100.655ZM35.1173 99.4569L44.9264 97.2917V71.2443L35.164 69.9309L35.1173 99.4569Z" fill="#FFB413"/>
</g>
<g filter="url(#filter1_b_1_162)">
<rect x="16" y="69.7809" width="140.935" height="101.811" rx="15" fill="url(#paint0_linear_1_162)"/>
<rect x="16.5" y="70.2809" width="139.935" height="100.811" rx="14.5" stroke="url(#paint1_linear_1_162)"/>
</g>
<g clip-path="url(#clip1_1_162)" filter="url(#filter2_f_1_162)">
<path d="M270.474 115.262V167.279L285.198 156.69V122.488L270.474 115.262ZM263.626 155.918L251.771 160.593V119.784L263.626 122.952V155.918ZM235.849 154.719L244.922 152.554V126.507L235.892 125.193L235.849 154.719Z" fill="#FF5A13"/>
</g>
<g clip-path="url(#clip2_1_162)" filter="url(#filter3_f_1_162)">
<path d="M122.548 182.262V225.387L135.15 216.607V188.253L122.548 182.262ZM116.687 215.968L106.541 219.844V186.01L116.687 188.637V215.968ZM92.9139 214.974L100.679 213.179V191.584L92.9509 190.495L92.9139 214.974Z" fill="#2FB8EB"/>
</g>
<g clip-path="url(#clip3_1_162)" filter="url(#filter4_f_1_162)">
<path d="M318.203 233.389V276.514L329.213 267.735V239.38L318.203 233.389ZM313.082 267.095L304.217 270.971V237.138L313.082 239.765V267.095ZM292.312 266.102L299.096 264.306V242.712L292.344 241.623L292.312 266.102Z" fill="#00E3A5"/>
</g>
<g filter="url(#filter5_b_1_162)">
<rect x="66" y="183.596" width="140.935" height="101.811" rx="15" fill="url(#paint2_linear_1_162)"/>
<rect x="66.5" y="184.096" width="139.935" height="100.811" rx="14.5" stroke="url(#paint3_linear_1_162)"/>
</g>
<g filter="url(#filter6_b_1_162)">
<rect x="168" y="121.042" width="141.379" height="101.811" rx="15" fill="url(#paint4_linear_1_162)"/>
<rect x="168.5" y="121.542" width="140.379" height="100.811" rx="14.5" stroke="url(#paint5_linear_1_162)"/>
</g>
<g filter="url(#filter7_b_1_162)">
<rect x="218" y="233.834" width="141.379" height="101.811" rx="15" fill="url(#paint6_linear_1_162)"/>
<rect x="218.5" y="234.334" width="140.379" height="100.811" rx="14.5" stroke="url(#paint7_linear_1_162)"/>
</g>
<path d="M56.22 138.2H54.75L51.642 143.38L48.52 138.2H47.05V148H48.352V140.356L51.558 145.676H51.726L54.932 140.342V148H56.22V138.2ZM63.9856 141V142.204C63.4256 141.35 62.5296 140.818 61.3396 140.818C59.3936 140.818 57.7976 142.428 57.7976 144.5C57.7976 146.572 59.3936 148.182 61.3396 148.182C62.5296 148.182 63.4256 147.65 63.9856 146.796V148H65.2036V141H63.9856ZM61.4936 147.006C60.0936 147.006 59.0156 145.928 59.0156 144.5C59.0156 143.072 60.0936 141.994 61.4936 141.994C62.9076 141.994 63.9856 143.072 63.9856 144.5C63.9856 145.928 62.9076 147.006 61.4936 147.006ZM68.267 142.176V141H67.049V148H68.267V144.29C68.267 142.638 69.401 142.106 70.451 142.148V140.874C69.569 140.874 68.715 141.196 68.267 142.176ZM77.5648 148L74.1068 144.388L77.4528 141H75.8848L72.8608 144.094V138.2H71.6427V148H72.8608V144.682L76.0528 148H77.5648ZM78.9089 145.06H84.7749C84.8029 144.878 84.8169 144.696 84.8169 144.514C84.8169 142.554 83.4449 140.818 81.3309 140.818C79.1469 140.818 77.6629 142.428 77.6629 144.5C77.6629 146.6 79.1609 148.182 81.4149 148.182C82.8149 148.182 83.8789 147.552 84.4949 146.6L83.4589 146.012C83.1089 146.586 82.4089 147.034 81.4429 147.034C80.1409 147.034 79.1469 146.32 78.9089 145.06ZM81.3309 141.966C82.3809 141.966 83.3749 142.61 83.5849 143.996H78.9089C79.1049 142.778 80.0149 141.966 81.3309 141.966ZM89.8199 142.176V141H87.9579V139.04L86.7399 139.404V141H85.3539V142.176H86.7399V145.97C86.7399 147.72 87.7199 148.28 89.8199 148V146.908C88.5739 146.964 87.9579 147.034 87.9579 145.97V142.176H89.8199ZM95.1669 140.818C93.9769 140.818 93.0809 141.35 92.5209 142.204V141H91.3029V150.8H92.5209V146.796C93.0809 147.65 93.9769 148.182 95.1669 148.182C97.1129 148.182 98.7089 146.572 98.7089 144.5C98.7089 142.428 97.1129 140.818 95.1669 140.818ZM95.0129 147.006C93.5989 147.006 92.5209 145.928 92.5209 144.5C92.5209 143.072 93.5989 141.994 95.0129 141.994C96.4129 141.994 97.4909 143.072 97.4909 144.5C97.4909 145.928 96.4129 147.006 95.0129 147.006ZM100.162 148H101.38V137.78H100.162V148ZM109.034 141V142.204C108.474 141.35 107.578 140.818 106.388 140.818C104.442 140.818 102.846 142.428 102.846 144.5C102.846 146.572 104.442 148.182 106.388 148.182C107.578 148.182 108.474 147.65 109.034 146.796V148H110.252V141H109.034ZM106.542 147.006C105.142 147.006 104.064 145.928 104.064 144.5C104.064 143.072 105.142 141.994 106.542 141.994C107.956 141.994 109.034 143.072 109.034 144.5C109.034 145.928 107.956 147.006 106.542 147.006ZM115.388 148.182C116.76 148.182 117.95 147.454 118.538 146.362L117.502 145.76C117.11 146.488 116.34 146.978 115.388 146.978C113.988 146.978 112.924 145.9 112.924 144.5C112.924 143.086 113.988 142.008 115.388 142.008C116.326 142.008 117.11 142.498 117.46 143.24L118.482 142.652C117.95 141.546 116.774 140.818 115.388 140.818C113.274 140.818 111.706 142.428 111.706 144.5C111.706 146.572 113.274 148.182 115.388 148.182ZM120.499 145.06H126.365C126.393 144.878 126.407 144.696 126.407 144.514C126.407 142.554 125.035 140.818 122.921 140.818C120.737 140.818 119.253 142.428 119.253 144.5C119.253 146.6 120.751 148.182 123.005 148.182C124.405 148.182 125.469 147.552 126.085 146.6L125.049 146.012C124.699 146.586 123.999 147.034 123.033 147.034C121.731 147.034 120.737 146.32 120.499 145.06ZM122.921 141.966C123.971 141.966 124.965 142.61 125.175 143.996H120.499C120.695 142.778 121.605 141.966 122.921 141.966Z" fill="#BDF3FF"/>
<path d="M192.22 189.2H190.75L187.642 194.38L184.52 189.2H183.05V199H184.352V191.356L187.558 196.676H187.726L190.932 191.342V199H192.22V189.2ZM197.48 199.182C199.524 199.182 201.176 197.572 201.176 195.5C201.176 193.428 199.524 191.818 197.48 191.818C195.436 191.818 193.798 193.428 193.798 195.5C193.798 197.572 195.436 199.182 197.48 199.182ZM197.48 197.992C196.094 197.992 195.016 196.914 195.016 195.5C195.016 194.086 196.094 193.008 197.48 193.008C198.88 193.008 199.958 194.086 199.958 195.5C199.958 196.914 198.88 197.992 197.48 197.992ZM206.098 191.818C205.118 191.818 204.348 192.182 203.83 193.008V192H202.611V199H203.83V195.29C203.83 193.638 204.74 192.98 205.86 192.98C206.938 192.98 207.596 193.624 207.596 194.772V199H208.814V194.702C208.814 192.91 207.736 191.818 206.098 191.818ZM211.368 196.06H217.234C217.262 195.878 217.276 195.696 217.276 195.514C217.276 193.554 215.904 191.818 213.79 191.818C211.606 191.818 210.122 193.428 210.122 195.5C210.122 197.6 211.62 199.182 213.874 199.182C215.274 199.182 216.338 198.552 216.954 197.6L215.918 197.012C215.568 197.586 214.868 198.034 213.902 198.034C212.6 198.034 211.606 197.32 211.368 196.06ZM213.79 192.966C214.84 192.966 215.834 193.61 216.044 194.996H211.368C211.564 193.778 212.474 192.966 213.79 192.966ZM223.289 192L221.273 197.488L218.893 192H217.591L220.643 198.972L220.517 199.238C220.153 200.162 219.565 200.736 218.627 200.666V201.8C220.055 201.898 221.147 201.002 221.735 199.434L224.591 192H223.289ZM232.79 189.2H229.234V199H230.536V195.5H232.79C234.596 195.5 235.954 194.128 235.954 192.35C235.954 190.558 234.596 189.2 232.79 189.2ZM232.79 194.282H230.536V190.418H232.79C233.868 190.418 234.666 191.23 234.666 192.35C234.666 193.456 233.868 194.282 232.79 194.282ZM238.433 193.176V192H237.215V199H238.433V195.29C238.433 193.638 239.567 193.106 240.617 193.148V191.874C239.735 191.874 238.881 192.196 238.433 193.176ZM244.716 199.182C246.76 199.182 248.412 197.572 248.412 195.5C248.412 193.428 246.76 191.818 244.716 191.818C242.672 191.818 241.034 193.428 241.034 195.5C241.034 197.572 242.672 199.182 244.716 199.182ZM244.716 197.992C243.33 197.992 242.252 196.914 242.252 195.5C242.252 194.086 243.33 193.008 244.716 193.008C246.116 193.008 247.194 194.086 247.194 195.5C247.194 196.914 246.116 197.992 244.716 197.992ZM253.505 193.176V192H251.643V190.04L250.425 190.404V192H249.039V193.176H250.425V196.97C250.425 198.72 251.405 199.28 253.505 199V197.908C252.259 197.964 251.643 198.034 251.643 196.97V193.176H253.505ZM255.446 196.06H261.312C261.34 195.878 261.354 195.696 261.354 195.514C261.354 193.554 259.982 191.818 257.868 191.818C255.684 191.818 254.2 193.428 254.2 195.5C254.2 197.6 255.698 199.182 257.952 199.182C259.352 199.182 260.416 198.552 261.032 197.6L259.996 197.012C259.646 197.586 258.946 198.034 257.98 198.034C256.678 198.034 255.684 197.32 255.446 196.06ZM257.868 192.966C258.918 192.966 259.912 193.61 260.122 194.996H255.446C255.642 193.778 256.552 192.966 257.868 192.966ZM266.03 199.182C267.402 199.182 268.592 198.454 269.18 197.362L268.144 196.76C267.752 197.488 266.982 197.978 266.03 197.978C264.63 197.978 263.566 196.9 263.566 195.5C263.566 194.086 264.63 193.008 266.03 193.008C266.968 193.008 267.752 193.498 268.102 194.24L269.124 193.652C268.592 192.546 267.416 191.818 266.03 191.818C263.916 191.818 262.348 193.428 262.348 195.5C262.348 197.572 263.916 199.182 266.03 199.182ZM274.191 193.176V192H272.329V190.04L271.111 190.404V192H269.725V193.176H271.111V196.97C271.111 198.72 272.091 199.28 274.191 199V197.908C272.945 197.964 272.329 198.034 272.329 196.97V193.176H274.191ZM276.249 190.726C276.697 190.726 277.061 190.362 277.061 189.914C277.061 189.466 276.697 189.088 276.249 189.088C275.787 189.088 275.423 189.466 275.423 189.914C275.423 190.362 275.787 190.726 276.249 190.726ZM275.633 199H276.851V192H275.633V199ZM281.999 199.182C284.043 199.182 285.695 197.572 285.695 195.5C285.695 193.428 284.043 191.818 281.999 191.818C279.955 191.818 278.317 193.428 278.317 195.5C278.317 197.572 279.955 199.182 281.999 199.182ZM281.999 197.992C280.613 197.992 279.535 196.914 279.535 195.5C279.535 194.086 280.613 193.008 281.999 193.008C283.399 193.008 284.477 194.086 284.477 195.5C284.477 196.914 283.399 197.992 281.999 197.992ZM290.617 191.818C289.637 191.818 288.867 192.182 288.349 193.008V192H287.131V199H288.349V195.29C288.349 193.638 289.259 192.98 290.379 192.98C291.457 192.98 292.115 193.624 292.115 194.772V199H293.333V194.702C293.333 192.91 292.255 191.818 290.617 191.818Z" fill="#BDF3FF"/>
<path d="M89.872 252.2H86.05V262H89.872C92.574 262 94.52 259.816 94.52 257.1C94.52 254.384 92.574 252.2 89.872 252.2ZM89.872 260.768H87.352V253.432H89.872C91.888 253.432 93.274 255.028 93.274 257.1C93.274 259.172 91.888 260.768 89.872 260.768ZM101.769 255V256.204C101.209 255.35 100.313 254.818 99.1228 254.818C97.1768 254.818 95.5808 256.428 95.5808 258.5C95.5808 260.572 97.1768 262.182 99.1228 262.182C100.313 262.182 101.209 261.65 101.769 260.796V262H102.987V255H101.769ZM99.2768 261.006C97.8768 261.006 96.7988 259.928 96.7988 258.5C96.7988 257.072 97.8768 255.994 99.2768 255.994C100.691 255.994 101.769 257.072 101.769 258.5C101.769 259.928 100.691 261.006 99.2768 261.006ZM108.64 256.176V255H106.778V253.04L105.56 253.404V255H104.174V256.176H105.56V259.97C105.56 261.72 106.54 262.28 108.64 262V260.908C107.394 260.964 106.778 261.034 106.778 259.97V256.176H108.64ZM115.523 255V256.204C114.963 255.35 114.067 254.818 112.877 254.818C110.931 254.818 109.335 256.428 109.335 258.5C109.335 260.572 110.931 262.182 112.877 262.182C114.067 262.182 114.963 261.65 115.523 260.796V262H116.741V255H115.523ZM113.031 261.006C111.631 261.006 110.553 259.928 110.553 258.5C110.553 257.072 111.631 255.994 113.031 255.994C114.445 255.994 115.523 257.072 115.523 258.5C115.523 259.928 114.445 261.006 113.031 261.006ZM125.768 252.2H122.212V262H123.514V258.5H125.768C127.574 258.5 128.932 257.128 128.932 255.35C128.932 253.558 127.574 252.2 125.768 252.2ZM125.768 257.282H123.514V253.418H125.768C126.846 253.418 127.644 254.23 127.644 255.35C127.644 256.456 126.846 257.282 125.768 257.282ZM131.412 256.176V255H130.194V262H131.412V258.29C131.412 256.638 132.546 256.106 133.596 256.148V254.874C132.714 254.874 131.86 255.196 131.412 256.176ZM137.694 262.182C139.738 262.182 141.39 260.572 141.39 258.5C141.39 256.428 139.738 254.818 137.694 254.818C135.65 254.818 134.012 256.428 134.012 258.5C134.012 260.572 135.65 262.182 137.694 262.182ZM137.694 260.992C136.308 260.992 135.23 259.914 135.23 258.5C135.23 257.086 136.308 256.008 137.694 256.008C139.094 256.008 140.172 257.086 140.172 258.5C140.172 259.914 139.094 260.992 137.694 260.992ZM146.484 256.176V255H144.622V253.04L143.404 253.404V255H142.018V256.176H143.404V259.97C143.404 261.72 144.384 262.28 146.484 262V260.908C145.238 260.964 144.622 261.034 144.622 259.97V256.176H146.484ZM148.424 259.06H154.29C154.318 258.878 154.332 258.696 154.332 258.514C154.332 256.554 152.96 254.818 150.846 254.818C148.662 254.818 147.178 256.428 147.178 258.5C147.178 260.6 148.676 262.182 150.93 262.182C152.33 262.182 153.394 261.552 154.01 260.6L152.974 260.012C152.624 260.586 151.924 261.034 150.958 261.034C149.656 261.034 148.662 260.32 148.424 259.06ZM150.846 255.966C151.896 255.966 152.89 256.61 153.1 257.996H148.424C148.62 256.778 149.53 255.966 150.846 255.966ZM159.009 262.182C160.381 262.182 161.571 261.454 162.159 260.362L161.123 259.76C160.731 260.488 159.961 260.978 159.009 260.978C157.609 260.978 156.545 259.9 156.545 258.5C156.545 257.086 157.609 256.008 159.009 256.008C159.947 256.008 160.731 256.498 161.081 257.24L162.103 256.652C161.571 255.546 160.395 254.818 159.009 254.818C156.895 254.818 155.327 256.428 155.327 258.5C155.327 260.572 156.895 262.182 159.009 262.182ZM167.17 256.176V255H165.308V253.04L164.09 253.404V255H162.704V256.176H164.09V259.97C164.09 261.72 165.07 262.28 167.17 262V260.908C165.924 260.964 165.308 261.034 165.308 259.97V256.176H167.17ZM169.228 253.726C169.676 253.726 170.04 253.362 170.04 252.914C170.04 252.466 169.676 252.088 169.228 252.088C168.766 252.088 168.402 252.466 168.402 252.914C168.402 253.362 168.766 253.726 169.228 253.726ZM168.611 262H169.83V255H168.611V262ZM174.978 262.182C177.022 262.182 178.674 260.572 178.674 258.5C178.674 256.428 177.022 254.818 174.978 254.818C172.934 254.818 171.296 256.428 171.296 258.5C171.296 260.572 172.934 262.182 174.978 262.182ZM174.978 260.992C173.592 260.992 172.514 259.914 172.514 258.5C172.514 257.086 173.592 256.008 174.978 256.008C176.378 256.008 177.456 257.086 177.456 258.5C177.456 259.914 176.378 260.992 174.978 260.992ZM183.596 254.818C182.616 254.818 181.846 255.182 181.328 256.008V255H180.11V262H181.328V258.29C181.328 256.638 182.238 255.98 183.358 255.98C184.436 255.98 185.094 256.624 185.094 257.772V262H186.312V257.702C186.312 255.91 185.234 254.818 183.596 254.818Z" fill="#BDF3FF"/>
<path d="M250.692 303.432V302.2H245.05V312H246.352V307.842H250.51V306.61H246.352V303.432H250.692ZM257.939 305V306.204C257.379 305.35 256.483 304.818 255.293 304.818C253.347 304.818 251.751 306.428 251.751 308.5C251.751 310.572 253.347 312.182 255.293 312.182C256.483 312.182 257.379 311.65 257.939 310.796V312H259.157V305H257.939ZM255.447 311.006C254.047 311.006 252.969 309.928 252.969 308.5C252.969 307.072 254.047 305.994 255.447 305.994C256.861 305.994 257.939 307.072 257.939 308.5C257.939 309.928 256.861 311.006 255.447 311.006ZM262.038 306.89C262.038 306.26 262.654 305.952 263.284 305.952C263.9 305.952 264.516 306.218 264.782 306.848L265.804 306.274C265.356 305.364 264.432 304.818 263.284 304.818C261.87 304.818 260.806 305.672 260.806 306.904C260.806 309.438 264.726 308.584 264.726 310.082C264.726 310.768 264.082 311.034 263.34 311.034C262.472 311.034 261.828 310.614 261.604 309.942L260.554 310.544C260.96 311.51 261.94 312.182 263.34 312.182C264.838 312.182 265.958 311.384 265.958 310.082C265.958 307.506 262.038 308.388 262.038 306.89ZM270.935 306.176V305H269.073V303.04L267.855 303.404V305H266.469V306.176H267.855V309.97C267.855 311.72 268.835 312.28 270.935 312V310.908C269.689 310.964 269.073 311.034 269.073 309.97V306.176H270.935ZM283.94 311.594L282.638 310.208C283.016 309.578 283.268 308.85 283.394 308.122L282.274 307.478C282.176 308.164 282.008 308.766 281.77 309.256L279.096 306.4C278.606 305.882 278.228 305.406 278.228 304.734C278.228 303.852 278.956 303.278 279.838 303.278C280.678 303.278 281.364 303.796 281.644 304.65L282.736 304.02C282.26 302.746 281.098 302.018 279.81 302.018C278.284 302.018 276.926 303.068 276.926 304.748C276.926 305.518 277.192 306.064 277.556 306.526C276.352 307.128 275.764 308.192 275.764 309.354C275.764 311.104 277.122 312.182 279.054 312.182C280.258 312.182 281.182 311.79 281.854 311.16L282.848 312.224L283.94 311.594ZM279.082 310.95C277.808 310.95 277.066 310.306 277.066 309.27C277.066 308.598 277.402 307.828 278.368 307.422L281.014 310.264C280.51 310.712 279.866 310.95 279.082 310.95ZM291.978 312.182C293.98 312.182 295.366 311.09 295.366 309.368C295.366 307.478 293.756 306.974 292.048 306.414C290.676 305.98 289.99 305.644 289.99 304.734C289.99 303.838 290.718 303.278 291.768 303.278C292.958 303.278 293.644 303.95 293.994 304.79L295.086 304.16C294.54 302.928 293.378 302.018 291.768 302.018C290.13 302.018 288.688 303.026 288.688 304.79C288.688 306.61 290.2 307.1 291.768 307.604C293.21 308.052 294.078 308.388 294.078 309.396C294.078 310.278 293.392 310.908 292.006 310.908C290.578 310.908 289.738 310.208 289.388 309.13L288.268 309.774C288.786 311.244 290.116 312.182 291.978 312.182ZM297.799 309.06H303.665C303.693 308.878 303.707 308.696 303.707 308.514C303.707 306.554 302.335 304.818 300.221 304.818C298.037 304.818 296.553 306.428 296.553 308.5C296.553 310.6 298.051 312.182 300.305 312.182C301.705 312.182 302.769 311.552 303.385 310.6L302.349 310.012C301.999 310.586 301.299 311.034 300.333 311.034C299.031 311.034 298.037 310.32 297.799 309.06ZM300.221 305.966C301.271 305.966 302.265 306.61 302.475 307.996H297.799C297.995 306.778 298.905 305.966 300.221 305.966ZM308.384 312.182C309.756 312.182 310.946 311.454 311.534 310.362L310.498 309.76C310.106 310.488 309.336 310.978 308.384 310.978C306.984 310.978 305.92 309.9 305.92 308.5C305.92 307.086 306.984 306.008 308.384 306.008C309.322 306.008 310.106 306.498 310.456 307.24L311.478 306.652C310.946 305.546 309.77 304.818 308.384 304.818C306.27 304.818 304.702 306.428 304.702 308.5C304.702 310.572 306.27 312.182 308.384 312.182ZM317.58 305V308.71C317.58 310.362 316.67 311.02 315.55 311.02C314.472 311.02 313.814 310.376 313.814 309.228V305H312.596V309.298C312.596 311.09 313.674 312.182 315.312 312.182C316.292 312.182 317.062 311.818 317.58 310.992V312H318.798V305H317.58ZM321.871 306.176V305H320.653V312H321.871V308.29C321.871 306.638 323.005 306.106 324.055 306.148V304.874C323.173 304.874 322.319 305.196 321.871 306.176ZM325.717 309.06H331.583C331.611 308.878 331.625 308.696 331.625 308.514C331.625 306.554 330.253 304.818 328.139 304.818C325.955 304.818 324.471 306.428 324.471 308.5C324.471 310.6 325.969 312.182 328.223 312.182C329.623 312.182 330.687 311.552 331.303 310.6L330.267 310.012C329.917 310.586 329.217 311.034 328.251 311.034C326.949 311.034 325.955 310.32 325.717 309.06ZM328.139 305.966C329.189 305.966 330.183 306.61 330.393 307.996H325.717C325.913 306.778 326.823 305.966 328.139 305.966Z" fill="#BDF3FF"/>
<g clip-path="url(#clip4_1_162)">
<path d="M92.9278 90.1819V125.749L102.018 118.508V95.1227L92.9278 90.1819ZM88.6998 117.981L81.3804 121.177V93.2733L88.6998 95.4399V117.981ZM71.5505 117.161L77.1524 115.681V97.8703L71.5772 96.9722L71.5505 117.161Z" fill="url(#paint8_linear_1_162)"/>
</g>
<g clip-path="url(#clip5_1_162)">
<path d="M147.845 230.725H124.85C123.792 230.725 122.889 230.352 122.14 229.608C121.392 228.864 121.018 227.966 121.018 226.914V211.671C121.018 211.155 121.202 210.708 121.571 210.331C121.941 209.954 122.395 209.765 122.934 209.765H137.306C137.306 209.626 137.42 209.349 137.65 208.932C137.879 208.515 138.104 208.128 138.324 207.771L138.683 207.265C138.823 206.887 139.102 206.575 139.521 206.327C139.94 206.079 140.38 205.955 140.839 205.955H148.025C148.504 205.955 148.953 206.079 149.372 206.327C149.791 206.575 150.071 206.887 150.21 207.265C151.188 208.535 151.677 209.368 151.677 209.765V226.914C151.677 227.966 151.303 228.864 150.555 229.608C149.806 230.352 148.903 230.725 147.845 230.725ZM140.18 217.387C140.18 216.335 139.806 215.437 139.057 214.693C138.309 213.948 137.405 213.576 136.347 213.576C135.29 213.576 134.386 213.948 133.638 214.693C132.889 215.437 132.515 216.335 132.515 217.387C132.515 218.161 132.74 218.87 133.189 219.516C133.638 220.161 134.222 220.622 134.94 220.9L132.515 226.914H140.18L137.755 220.9C138.473 220.622 139.057 220.161 139.506 219.516C139.955 218.87 140.18 218.161 140.18 217.387ZM122.395 205.359C122.535 204.982 122.814 204.669 123.233 204.421C123.652 204.173 124.092 204.049 124.551 204.049H131.737C132.216 204.049 132.665 204.173 133.084 204.421C133.503 204.669 133.792 204.982 133.952 205.359L135.389 207.86H121.018L122.395 205.359Z" fill="url(#paint9_linear_1_162)"/>
</g>
<path d="M237.302 144.903L248.117 148.282C248.419 148.376 248.682 148.564 248.869 148.819C249.057 149.073 249.157 149.381 249.157 149.697V152.313H252.121C252.514 152.313 252.891 152.469 253.169 152.747C253.447 153.025 253.603 153.402 253.603 153.795V156.759H234.338V153.795C234.338 153.402 234.494 153.025 234.772 152.747C235.05 152.469 235.427 152.313 235.82 152.313H246.193V150.786L237.302 148.006L228.41 150.786V161.759C228.41 162.666 228.618 163.561 229.018 164.376C229.418 165.19 230 165.901 230.719 166.455L230.999 166.657L237.302 170.956L242.906 167.132H235.82C235.427 167.132 235.05 166.976 234.772 166.698C234.494 166.421 234.338 166.044 234.338 165.651V159.723H253.603V165.651C253.603 166.044 253.447 166.421 253.169 166.698C252.891 166.976 252.514 167.132 252.121 167.132L247.349 167.134C246.776 167.89 246.079 168.557 245.275 169.105L237.302 174.542L229.329 169.106C228.132 168.291 227.153 167.195 226.476 165.914C225.799 164.634 225.446 163.207 225.446 161.759V149.697C225.446 149.381 225.547 149.074 225.734 148.82C225.921 148.565 226.185 148.378 226.486 148.283L237.302 144.903Z" fill="url(#paint10_linear_1_162)"/>
<g clip-path="url(#clip6_1_162)">
<path d="M284.67 265.401H291.784V264.216C291.784 263.272 291.409 262.368 290.742 261.701C290.075 261.034 289.17 260.659 288.227 260.659C287.284 260.659 286.379 261.034 285.712 261.701C285.045 262.368 284.67 263.272 284.67 264.216V265.401Z" fill="url(#paint11_linear_1_162)"/>
<path d="M282.892 270.143H293.562V268.958H282.892V270.143Z" fill="url(#paint12_linear_1_162)"/>
<path d="M293.562 273.107H282.892V271.922H293.562V273.107Z" fill="url(#paint13_linear_1_162)"/>
<path d="M282.892 276.071H293.562V274.886H282.892V276.071Z" fill="url(#paint14_linear_1_162)"/>
<path fill-rule="evenodd" clip-rule="evenodd" d="M274 254.731H302.454V283.185H274V254.731ZM280.521 265.401C280.206 265.401 279.905 265.526 279.682 265.748C279.46 265.971 279.335 266.272 279.335 266.587V278.442C279.335 278.757 279.46 279.058 279.682 279.281C279.905 279.503 280.206 279.628 280.521 279.628H295.933C296.247 279.628 296.549 279.503 296.771 279.281C296.994 279.058 297.119 278.757 297.119 278.442V266.587C297.119 266.272 296.994 265.971 296.771 265.748C296.549 265.526 296.247 265.401 295.933 265.401H294.155V264.216C294.155 260.942 291.501 258.288 288.227 258.288C284.953 258.288 282.299 260.942 282.299 264.216V265.401H280.521Z" fill="url(#paint15_linear_1_162)"/>
</g>
<defs>
<filter id="filter0_f_1_162" x="-29.3286" y="0" width="182.242" height="172.017" filterUnits="userSpaceOnUse" color-interpolation-filters="sRGB">
<feFlood flood-opacity="0" result="BackgroundImageFix"/>
<feBlend mode="normal" in="SourceGraphic" in2="BackgroundImageFix" result="shape"/>
<feGaussianBlur stdDeviation="30" result="effect1_foregroundBlur_1_162"/>
</filter>
<filter id="filter1_b_1_162" x="-34" y="19.7809" width="240.935" height="201.811" filterUnits="userSpaceOnUse" color-interpolation-filters="sRGB">
<feFlood flood-opacity="0" result="BackgroundImageFix"/>
<feGaussianBlur in="BackgroundImage" stdDeviation="25"/>
<feComposite in2="SourceAlpha" operator="in" result="effect1_backgroundBlur_1_162"/>
<feBlend mode="normal" in="SourceGraphic" in2="effect1_backgroundBlur_1_162" result="shape"/>
</filter>
<filter id="filter2_f_1_162" x="171.848" y="55.2625" width="177.797" height="172.017" filterUnits="userSpaceOnUse" color-interpolation-filters="sRGB">
<feFlood flood-opacity="0" result="BackgroundImageFix"/>
<feBlend mode="normal" in="SourceGraphic" in2="BackgroundImageFix" result="shape"/>
<feGaussianBlur stdDeviation="30" result="effect1_foregroundBlur_1_162"/>
</filter>
<filter id="filter3_f_1_162" x="29.3572" y="122.262" width="169.349" height="163.125" filterUnits="userSpaceOnUse" color-interpolation-filters="sRGB">
<feFlood flood-opacity="0" result="BackgroundImageFix"/>
<feBlend mode="normal" in="SourceGraphic" in2="BackgroundImageFix" result="shape"/>
<feGaussianBlur stdDeviation="30" result="effect1_foregroundBlur_1_162"/>
</filter>
<filter id="filter4_f_1_162" x="229.2" y="173.389" width="163.125" height="163.125" filterUnits="userSpaceOnUse" color-interpolation-filters="sRGB">
<feFlood flood-opacity="0" result="BackgroundImageFix"/>
<feBlend mode="normal" in="SourceGraphic" in2="BackgroundImageFix" result="shape"/>
<feGaussianBlur stdDeviation="30" result="effect1_foregroundBlur_1_162"/>
</filter>
<filter id="filter5_b_1_162" x="16" y="133.596" width="240.935" height="201.811" filterUnits="userSpaceOnUse" color-interpolation-filters="sRGB">
<feFlood flood-opacity="0" result="BackgroundImageFix"/>
<feGaussianBlur in="BackgroundImage" stdDeviation="25"/>
<feComposite in2="SourceAlpha" operator="in" result="effect1_backgroundBlur_1_162"/>
<feBlend mode="normal" in="SourceGraphic" in2="effect1_backgroundBlur_1_162" result="shape"/>
</filter>
<filter id="filter6_b_1_162" x="118" y="71.0421" width="241.379" height="201.811" filterUnits="userSpaceOnUse" color-interpolation-filters="sRGB">
<feFlood flood-opacity="0" result="BackgroundImageFix"/>
<feGaussianBlur in="BackgroundImage" stdDeviation="25"/>
<feComposite in2="SourceAlpha" operator="in" result="effect1_backgroundBlur_1_162"/>
<feBlend mode="normal" in="SourceGraphic" in2="effect1_backgroundBlur_1_162" result="shape"/>
</filter>
<filter id="filter7_b_1_162" x="168" y="183.834" width="241.379" height="201.811" filterUnits="userSpaceOnUse" color-interpolation-filters="sRGB">
<feFlood flood-opacity="0" result="BackgroundImageFix"/>
<feGaussianBlur in="BackgroundImage" stdDeviation="25"/>
<feComposite in2="SourceAlpha" operator="in" result="effect1_backgroundBlur_1_162"/>
<feBlend mode="normal" in="SourceGraphic" in2="effect1_backgroundBlur_1_162" result="shape"/>
</filter>
<linearGradient id="paint0_linear_1_162" x1="86.4673" y1="38.9471" x2="86.4673" y2="217.323" gradientUnits="userSpaceOnUse">
<stop stop-color="white" stop-opacity="0.03"/>
<stop offset="1" stop-color="white" stop-opacity="0"/>
</linearGradient>
<linearGradient id="paint1_linear_1_162" x1="172.016" y1="171.592" x2="26.6797" y2="31.8467" gradientUnits="userSpaceOnUse">
<stop stop-color="#F5FBF2" stop-opacity="0.44"/>
<stop offset="1" stop-color="#F5FBF2" stop-opacity="0"/>
</linearGradient>
<linearGradient id="paint2_linear_1_162" x1="136.467" y1="152.762" x2="136.467" y2="331.137" gradientUnits="userSpaceOnUse">
<stop stop-color="white" stop-opacity="0.03"/>
<stop offset="1" stop-color="white" stop-opacity="0"/>
</linearGradient>
<linearGradient id="paint3_linear_1_162" x1="222.016" y1="285.406" x2="76.6797" y2="145.661" gradientUnits="userSpaceOnUse">
<stop stop-color="#F5FBF2" stop-opacity="0.44"/>
<stop offset="1" stop-color="#F5FBF2" stop-opacity="0"/>
</linearGradient>
<linearGradient id="paint4_linear_1_162" x1="238.69" y1="90.2083" x2="238.69" y2="268.584" gradientUnits="userSpaceOnUse">
<stop stop-color="white" stop-opacity="0.03"/>
<stop offset="1" stop-color="white" stop-opacity="0"/>
</linearGradient>
<linearGradient id="paint5_linear_1_162" x1="324.508" y1="222.853" x2="179.155" y2="82.6505" gradientUnits="userSpaceOnUse">
<stop stop-color="#F5FBF2" stop-opacity="0.44"/>
<stop offset="1" stop-color="#F5FBF2" stop-opacity="0"/>
</linearGradient>
<linearGradient id="paint6_linear_1_162" x1="288.69" y1="203" x2="288.69" y2="381.376" gradientUnits="userSpaceOnUse">
<stop stop-color="white" stop-opacity="0.03"/>
<stop offset="1" stop-color="white" stop-opacity="0"/>
</linearGradient>
<linearGradient id="paint7_linear_1_162" x1="374.508" y1="335.645" x2="229.155" y2="195.442" gradientUnits="userSpaceOnUse">
<stop stop-color="#F5FBF2" stop-opacity="0.44"/>
<stop offset="1" stop-color="#F5FBF2" stop-opacity="0"/>
</linearGradient>
<linearGradient id="paint8_linear_1_162" x1="86.7844" y1="90.1819" x2="128.309" y2="100.249" gradientUnits="userSpaceOnUse">
<stop stop-color="#F7BC51"/>
<stop offset="0.609375" stop-color="#60E7CE" stop-opacity="0.5"/>
<stop offset="1" stop-color="#060ED0" stop-opacity="0.28"/>
</linearGradient>
<linearGradient id="paint9_linear_1_162" x1="136.347" y1="204.049" x2="176.357" y2="217.064" gradientUnits="userSpaceOnUse">
<stop stop-color="#05D2FF"/>
<stop offset="0.609375" stop-color="#253FE0" stop-opacity="0.619792"/>
<stop offset="1" stop-color="#060ED0" stop-opacity="0.28"/>
</linearGradient>
<linearGradient id="paint10_linear_1_162" x1="239.525" y1="144.903" x2="277.417" y2="155.091" gradientUnits="userSpaceOnUse">
<stop stop-color="#FD5A14"/>
<stop offset="0.609375" stop-color="#FFF06B" stop-opacity="0.59"/>
<stop offset="1" stop-color="#060ED0" stop-opacity="0.28"/>
</linearGradient>
<linearGradient id="paint11_linear_1_162" x1="288.227" y1="260.659" x2="296.924" y2="264.351" gradientUnits="userSpaceOnUse">
<stop stop-color="#00DD9C"/>
<stop offset="0.609375" stop-color="#253FE0" stop-opacity="0.619792"/>
<stop offset="1" stop-color="#060ED0" stop-opacity="0.28"/>
</linearGradient>
<linearGradient id="paint12_linear_1_162" x1="288.227" y1="268.958" x2="290.283" y2="274.195" gradientUnits="userSpaceOnUse">
<stop stop-color="#00DD9C"/>
<stop offset="0.609375" stop-color="#253FE0" stop-opacity="0.619792"/>
<stop offset="1" stop-color="#060ED0" stop-opacity="0.28"/>
</linearGradient>
<linearGradient id="paint13_linear_1_162" x1="288.227" y1="271.922" x2="290.283" y2="277.159" gradientUnits="userSpaceOnUse">
<stop stop-color="#00DD9C"/>
<stop offset="0.609375" stop-color="#253FE0" stop-opacity="0.619792"/>
<stop offset="1" stop-color="#060ED0" stop-opacity="0.28"/>
</linearGradient>
<linearGradient id="paint14_linear_1_162" x1="288.227" y1="274.886" x2="290.283" y2="280.123" gradientUnits="userSpaceOnUse">
<stop stop-color="#00DD9C"/>
<stop offset="0.609375" stop-color="#253FE0" stop-opacity="0.619792"/>
<stop offset="1" stop-color="#060ED0" stop-opacity="0.28"/>
</linearGradient>
<linearGradient id="paint15_linear_1_162" x1="288.227" y1="254.731" x2="326.241" y2="265.49" gradientUnits="userSpaceOnUse">
<stop stop-color="#00DD9C"/>
<stop offset="0.609375" stop-color="#253FE0" stop-opacity="0.619792"/>
<stop offset="1" stop-color="#060ED0" stop-opacity="0.28"/>
</linearGradient>
<clipPath id="clip0_1_162">
<rect width="62.2424" height="52.0168" fill="white" transform="translate(30.6714 60)"/>
</clipPath>
<clipPath id="clip1_1_162">
<rect width="57.7965" height="52.0168" fill="white" transform="translate(231.848 115.262)"/>
</clipPath>
<clipPath id="clip2_1_162">
<rect width="49.3493" height="43.1251" fill="white" transform="translate(89.3572 182.262)"/>
</clipPath>
<clipPath id="clip3_1_162">
<rect width="43.1251" height="43.1251" fill="white" transform="translate(289.2 233.389)"/>
</clipPath>
<clipPath id="clip4_1_162">
<rect width="35.5671" height="35.5671" fill="white" transform="translate(69 90.1819)"/>
</clipPath>
<clipPath id="clip5_1_162">
<rect width="30.6949" height="26.6753" fill="white" transform="translate(121 204.049)"/>
</clipPath>
<clipPath id="clip6_1_162">
<rect width="28.4537" height="28.4537" fill="white" transform="translate(274 254.731)"/>
</clipPath>
</defs>
</svg>
