<svg width="38" height="29" viewBox="0 0 38 29" fill="none" xmlns="http://www.w3.org/2000/svg">
<path d="M17.4804 21.4209C17.524 22.4142 17.3431 23.4046 16.9506 24.3218C16.558 25.239 15.9633 26.0602 15.209 26.7272L15.203 26.7319C13.6415 28.0851 11.6079 28.8005 9.5222 28.7303L9.53533 28.7303C8.27464 28.7969 7.0144 28.5914 5.84415 28.1283C4.67389 27.6653 3.62232 26.956 2.76414 26.0509L2.75937 26.0463C1.03889 24.0508 0.16135 21.4895 0.305472 18.8838L0.304278 18.9083C0.224326 16.2023 0.738917 13.511 1.81336 11.0159L1.76564 11.1407C2.62353 9.18468 3.81334 7.38437 5.28485 5.81576L5.27172 5.82975C6.48804 4.54009 7.89743 3.43817 9.45182 2.56157L9.53771 2.51726C10.7133 1.8544 11.9403 1.2825 13.2072 0.806805L13.3933 0.745009L17.132 6.91292C15.5784 7.52558 14.2147 8.5229 13.175 9.80683L13.1595 9.82665C12.1243 11.0319 11.475 12.5084 11.2925 14.0719L11.289 14.1092C12.1025 14.1291 12.9026 14.3168 13.6367 14.66C14.3708 15.0032 15.0225 15.4941 15.549 16.1007L15.5561 16.1088C16.8948 17.5656 17.5872 19.482 17.4816 21.4372L17.4828 21.4198L17.4804 21.4209ZM37.6985 21.4209C37.7415 22.4142 37.5602 23.4046 37.1674 24.3217C36.7747 25.2387 36.1801 26.06 35.4259 26.7272L35.42 26.7319C33.8588 28.0856 31.8249 28.8011 29.7391 28.7303L29.7522 28.7303C28.4915 28.7973 27.2312 28.5919 26.0609 28.1288C24.8906 27.6657 23.839 26.9563 22.9811 26.0509L22.9763 26.0451C21.2551 24.0496 20.3775 21.4876 20.5224 18.8815L20.5212 18.906C20.4412 16.2 20.9558 13.5087 22.0303 11.0136L21.9826 11.1383C22.84 9.1824 24.0294 7.38209 25.5006 5.81342L25.4874 5.82741C26.7042 4.53773 28.114 3.43581 29.6687 2.55924L29.7546 2.51493C30.93 1.8516 32.157 1.27968 33.4241 0.804472L33.6102 0.742676L37.3478 6.91059C35.7939 7.52399 34.4302 8.52212 33.3907 9.80682L33.3752 9.82665C32.34 11.0319 31.6907 12.5084 31.5083 14.0719L31.5047 14.1092C32.3179 14.129 33.1177 14.3167 33.8514 14.6599C34.5852 15.0031 35.2364 15.4941 35.7623 16.1007L35.7695 16.1088C37.1096 17.5645 37.8034 19.4806 37.6985 21.4361L37.6997 21.4186L37.6985 21.4209Z" fill="#0B4137"/>
</svg>
