<svg width="31" height="27" viewBox="0 0 31 27" fill="none" xmlns="http://www.w3.org/2000/svg">
<g clip-path="url(#clip0_1_181)">
<path d="M26.8449 26.7245H3.85005C2.79213 26.7245 1.8889 26.3524 1.14037 25.6081C0.391843 24.8638 0.0175781 23.9657 0.0175781 22.9137V7.67071C0.0175781 7.15467 0.202215 6.7081 0.57149 6.33099C0.940764 5.95389 1.39487 5.76533 1.93381 5.76533H16.3056C16.3056 5.6264 16.4204 5.34853 16.6499 4.93173C16.8795 4.51493 17.104 4.1279 17.3236 3.77064L17.6829 3.26452C17.8226 2.88742 18.1021 2.57481 18.5212 2.32672C18.9404 2.07862 19.3795 1.95457 19.8386 1.95457H27.0245C27.5036 1.95457 27.9527 2.07862 28.3719 2.32672C28.7911 2.57481 29.0705 2.88742 29.2102 3.26452C30.1883 4.53477 30.6773 5.36838 30.6773 5.76533V22.9137C30.6773 23.9657 30.3031 24.8638 29.5546 25.6081C28.806 26.3524 27.9028 26.7245 26.8449 26.7245ZM19.1799 13.3868C19.1799 12.3349 18.8057 11.4368 18.0571 10.6925C17.3086 9.94823 16.4054 9.57609 15.3475 9.57609C14.2895 9.57609 13.3863 9.94823 12.6378 10.6925C11.8893 11.4368 11.515 12.3349 11.515 13.3868C11.515 14.1609 11.7395 14.8705 12.1887 15.5155C12.6378 16.1606 13.2216 16.622 13.9402 16.8999L11.515 22.9137H19.1799L16.7547 16.8999C17.4733 16.622 18.0571 16.1606 18.5063 15.5155C18.9554 14.8705 19.1799 14.1609 19.1799 13.3868ZM1.39487 1.35914C1.5346 0.982036 1.81405 0.669435 2.23323 0.421339C2.6524 0.173242 3.09154 0.0491943 3.55064 0.0491943H10.7365C11.2156 0.0491943 11.6647 0.173242 12.0839 0.421339C12.503 0.669435 12.7925 0.982036 12.9522 1.35914L14.3893 3.85995H0.0175781L1.39487 1.35914Z" fill="url(#paint0_linear_1_181)"/>
</g>
<defs>
<linearGradient id="paint0_linear_1_181" x1="15.3475" y1="0.0491928" x2="55.3567" y2="13.064" gradientUnits="userSpaceOnUse">
<stop stop-color="#05D2FF"/>
<stop offset="0.609375" stop-color="#253FE0" stop-opacity="0.619792"/>
<stop offset="1" stop-color="#060ED0" stop-opacity="0.28"/>
</linearGradient>
<clipPath id="clip0_1_181">
<rect width="30.6949" height="26.6753" fill="white" transform="translate(0 0.0491943)"/>
</clipPath>
</defs>
</svg>
