<svg width="36" height="37" viewBox="0 0 36 37" fill="none" xmlns="http://www.w3.org/2000/svg">
<path d="M16.3016 3.90308L27.117 7.28195C27.4186 7.37612 27.6823 7.56424 27.8694 7.81885C28.0566 8.07346 28.1574 8.38122 28.1573 8.69722V11.3129H31.1212C31.5143 11.3129 31.8912 11.469 32.1691 11.7469C32.4471 12.0249 32.6032 12.4018 32.6032 12.7948V15.7588H13.3377V12.7948C13.3377 12.4018 13.4938 12.0249 13.7718 11.7469C14.0497 11.469 14.4266 11.3129 14.8197 11.3129H25.1934V9.78646L16.3016 7.0063L7.40985 9.78646V20.7589C7.40963 21.6662 7.61769 22.5614 8.01799 23.3757C8.41829 24.1899 9.00015 24.9013 9.71874 25.4552L9.99883 25.6568L16.3016 29.956L21.9064 26.1325H14.8197C14.4266 26.1325 14.0497 25.9764 13.7718 25.6984C13.4938 25.4205 13.3377 25.0436 13.3377 24.6505V18.7227H32.6032V24.6505C32.6032 25.0436 32.4471 25.4205 32.1691 25.6984C31.8912 25.9764 31.5143 26.1325 31.1212 26.1325L26.3493 26.134C25.7758 26.8898 25.0793 27.5567 24.2746 28.105L16.3016 33.5423L8.32866 28.1065C7.13201 27.2906 6.15277 26.1947 5.47609 24.9142C4.79941 23.6337 4.44577 22.2072 4.44592 20.7589V8.69722C4.4461 8.38148 4.54712 8.07404 4.73426 7.81973C4.92139 7.56542 5.18486 7.37752 5.48626 7.28343L16.3016 3.90308Z" fill="url(#paint0_linear_1_183)"/>
<defs>
<linearGradient id="paint0_linear_1_183" x1="18.5246" y1="3.90307" x2="56.417" y2="14.0912" gradientUnits="userSpaceOnUse">
<stop stop-color="#FD5A14"/>
<stop offset="0.609375" stop-color="#FFF06B" stop-opacity="0.59"/>
<stop offset="1" stop-color="#060ED0" stop-opacity="0.28"/>
</linearGradient>
</defs>
</svg>
