<svg width="29" height="30" viewBox="0 0 29 30" fill="none" xmlns="http://www.w3.org/2000/svg">
<g clip-path="url(#clip0_1_185)">
<path d="M10.6702 11.4011H17.7836V10.2155C17.7836 9.27222 17.4089 8.36756 16.7418 7.70055C16.0748 7.03354 15.1702 6.65881 14.2269 6.65881C13.2836 6.65881 12.3789 7.03354 11.7119 7.70055C11.0449 8.36756 10.6702 9.27222 10.6702 10.2155V11.4011Z" fill="url(#paint0_linear_1_185)"/>
<path d="M8.89172 16.1433H19.5618V14.9578H8.89172V16.1433Z" fill="url(#paint1_linear_1_185)"/>
<path d="M19.5618 19.1073H8.89172V17.9218H19.5618V19.1073Z" fill="url(#paint2_linear_1_185)"/>
<path d="M8.89172 22.0712H19.5618V20.8856H8.89172V22.0712Z" fill="url(#paint3_linear_1_185)"/>
<path fill-rule="evenodd" clip-rule="evenodd" d="M0 0.730957H28.4537V29.1846H0V0.730957ZM6.52063 11.4011C6.2062 11.4011 5.90464 11.526 5.68231 11.7483C5.45997 11.9707 5.33506 12.2722 5.33506 12.5866V24.4423C5.33506 24.7568 5.45997 25.0583 5.68231 25.2807C5.90464 25.503 6.2062 25.6279 6.52063 25.6279H21.933C22.2475 25.6279 22.549 25.503 22.7714 25.2807C22.9937 25.0583 23.1186 24.7568 23.1186 24.4423V12.5866C23.1186 12.2722 22.9937 11.9707 22.7714 11.7483C22.549 11.526 22.2475 11.4011 21.933 11.4011H20.1547V10.2155C20.1547 6.94156 17.5008 4.28766 14.2268 4.28766C10.9529 4.28766 8.29898 6.94156 8.29898 10.2155V11.4011H6.52063Z" fill="url(#paint4_linear_1_185)"/>
</g>
<defs>
<linearGradient id="paint0_linear_1_185" x1="14.2269" y1="6.65881" x2="22.9242" y2="10.3511" gradientUnits="userSpaceOnUse">
<stop stop-color="#00DD9C"/>
<stop offset="0.609375" stop-color="#253FE0" stop-opacity="0.619792"/>
<stop offset="1" stop-color="#060ED0" stop-opacity="0.28"/>
</linearGradient>
<linearGradient id="paint1_linear_1_185" x1="14.2268" y1="14.9578" x2="16.283" y2="20.1953" gradientUnits="userSpaceOnUse">
<stop stop-color="#00DD9C"/>
<stop offset="0.609375" stop-color="#253FE0" stop-opacity="0.619792"/>
<stop offset="1" stop-color="#060ED0" stop-opacity="0.28"/>
</linearGradient>
<linearGradient id="paint2_linear_1_185" x1="14.2268" y1="17.9218" x2="16.283" y2="23.1593" gradientUnits="userSpaceOnUse">
<stop stop-color="#00DD9C"/>
<stop offset="0.609375" stop-color="#253FE0" stop-opacity="0.619792"/>
<stop offset="1" stop-color="#060ED0" stop-opacity="0.28"/>
</linearGradient>
<linearGradient id="paint3_linear_1_185" x1="14.2268" y1="20.8856" x2="16.283" y2="26.1232" gradientUnits="userSpaceOnUse">
<stop stop-color="#00DD9C"/>
<stop offset="0.609375" stop-color="#253FE0" stop-opacity="0.619792"/>
<stop offset="1" stop-color="#060ED0" stop-opacity="0.28"/>
</linearGradient>
<linearGradient id="paint4_linear_1_185" x1="14.2268" y1="0.730955" x2="52.2413" y2="11.4899" gradientUnits="userSpaceOnUse">
<stop stop-color="#00DD9C"/>
<stop offset="0.609375" stop-color="#253FE0" stop-opacity="0.619792"/>
<stop offset="1" stop-color="#060ED0" stop-opacity="0.28"/>
</linearGradient>
<clipPath id="clip0_1_185">
<rect width="28.4537" height="28.4537" fill="white" transform="translate(0 0.730957)"/>
</clipPath>
</defs>
</svg>
